<?xml version="1.0" encoding="UTF-8" standalone="no"?>
<!-- Uploaded to: SVG Repo, www.svgrepo.com, Generator: SVG Repo Mixer Tools -->
<svg width="800px" height="800px" viewBox="0 -15 66 66" version="1.1" xmlns="http://www.w3.org/2000/svg" xmlns:xlink="http://www.w3.org/1999/xlink" xmlns:sketch="http://www.bohemiancoding.com/sketch/ns">
    
    <title>Fish-bone</title>
    <desc>Created with Sketch.</desc>
    <defs>

</defs>
    <g id="Page-1" stroke="none" stroke-width="1" fill="none" fill-rule="evenodd" sketch:type="MSPage">
        <g id="Fish-bone" sketch:type="MSLayerGroup" transform="translate(1.000000, 1.000000)" stroke="#6B6C6E" stroke-width="2">
            <path d="M22.5,2 C12.3,3.6 0,14.2 0,16.9 C0,19.6 12.3,30.2 22.5,31.8 C19.1,28.2 17.1,23.1 17.1,17.1 C17.1,11.1 19,5.6 22.5,2 L22.5,2 Z" id="Shape" sketch:type="MSShapeGroup">

</path>
            <path d="M61.8,9.2 C56.9,10 51,15.6 51,17 C51,18.4 56.9,24 61.8,24.8 C60.2,22.9 59.1,20.1 59.1,17 C59.1,13.9 60.2,11.1 61.8,9.2 L61.8,9.2 Z" id="Shape" sketch:type="MSShapeGroup">

</path>
            <path d="M49,30.5 C45.4,26.5 43,23.6 43,16.9 C43,10.2 45.3,7.6 49,3.5" id="Shape" sketch:type="MSShapeGroup">

</path>
            <path d="M40.4,34 C37.2,28.9 35.1,25.3 35.1,16.8 C35.1,8.4 37.1,5.1 40.4,0" id="Shape" sketch:type="MSShapeGroup">

</path>
            <path d="M30.8,32 C27.2,27.5 26,24.3 26,16.9 C26,9.5 27.3,6.5 30.8,2" id="Shape" sketch:type="MSShapeGroup">

</path>
            <path d="M16.9,16.9 L50.5,16.9" id="Shape" sketch:type="MSShapeGroup">

</path>
            <circle id="Oval" sketch:type="MSShapeGroup" cx="8.9" cy="12.9" r="1.9">

</circle>
        </g>
    </g>
</svg>