<svg xmlns="http://www.w3.org/2000/svg" viewBox="-18.519989013671875 146.29623413085938 663.5199951171875 282.4075105259165"> <svg xmlns="http://www.w3.org/2000/svg" viewBox="-0.00016009912360459566 0.0007373737171292305 157.3105926513672 114.89288330078125" height="142.4075105259165" width="194.98345947265625" y="216.29623413085938" x="51.480010986328125" preserveAspectRatio="xMinYMin" style="overflow: visible;"><path class="a" d="M156.86283,54.31765,128.6574,37.29637l-8.37274-10.40376a.93011.93011,0,0,0-.61491-.34l-15.49757-1.805c-.028-.00181-.05471.00723-.08229.00723a.90549.90549,0,0,0-.13067.01176,56.7283,56.7283,0,0,0-.36216.10218L94.50723,30.196,80.896,33.8592,40.36792,4.89869c-.0113-.00814-.02622-.00723-.038-.01447a.91226.91226,0,0,0-.38793-.15011l-.01447-.00181-.01176-.0018L1.02808.00111A.8471.8471,0,0,0,.93223.00653C.91912.00653.906.00382.89289.00382.878.00472.86305-.0007.84813.00111.812.00382.7785.012.74233.01829A.9082.9082,0,0,0,.58589.06622C.56735.07255.54836.07707.53073.0843.49817.09967.46924.11685.43849.13494A.90984.90984,0,0,0,.31913.22266a.86854.86854,0,0,0-.06963.066C.23684.30223.21966.30856.2079.323.1975.33569.19479.35106.18529.36372A.85359.85359,0,0,0,.11838.465C.10933.48038.09486.49123.08673.5075.07587.52921.07587.55362.06683.57623a.88411.88411,0,0,0-.038.10851C.02433.70283.01258.71549.009.73357.00625.74714.01077.7607.00851.77427a.91378.91378,0,0,0-.00814.1266.835.835,0,0,0,.005.12569c.00317.02713.00271.05426.00859.08139a.89085.89085,0,0,0,.03889.11394.9104.9104,0,0,0,.05018.123c.01176.02261.01854.04521.03165.066a.83331.83331,0,0,0,.08681.10038A.88523.88523,0,0,0,.27663,1.589L57.60081,56.31611l-6.14188,8.56354a.91565.91565,0,0,0-.13971.30746c-.00136.00542-.00633.009-.00769.01446l-.00136.00543-.00045.00271-2.79694,11.5956c-.00542.02261.00317.04431-.00045.06691a.82291.82291,0,0,0-.024.09586l-1.43691,24.24377v.00091a.92736.92736,0,0,0,.1257.52177l7.44766,12.70153a.9256.9256,0,0,0,.79848.45756.78755.78755,0,0,0,.11213-.00723.92439.92439,0,0,0,.77587-.6547L67.34308,77.04585l20.61534-7.47841a.9132.9132,0,0,0,.40964-.29479L103.579,50.1245l22.13228-6.14821,30.3323,11.99438a.94213.94213,0,0,0,.34091.06511.92555.92555,0,0,0,.47837-1.71813ZM66.39675,75.02749,54.004,65.61664,83.01472,52.33546,68.22159,72.5362ZM59.41208,55.117l-5.215-14.32562,28.176,9.06994L66.08839,53.5888ZM28.39343,20.15663,5.60736,3.24838l32.89051,9.55735L50.14049,36.29352ZM53.2069,38.30826,41.28758,14.26343l36.60891,20.113Zm3.44441,1.32748,23.43625-3.73106,1.1412,3.35307,3.16589,9.30867L67.26621,43.053ZM82.44773,37.0929,100.088,48.50583l-13.56964.55162Zm2.46869-.60948L106.923,40.03724l-4.2257,7.95044Zm-44.78271-24.969.12751-1.19.32057-2.99679L67.42311,26.5083ZM77.2644,52.93048,54.99648,63.12535l4.3731-6.09848ZM52.77918,67.01285l11.19319,8.49934-2.53018.10128-10.84233.434Zm-2.4922,10.902,14.3957-.576L49.08338,98.235Zm74.29121-42.73361-13.48555-6.93854-2.069-1.06434,10.0556,1.17014Zm-20.48378-8.45683L124.65279,37.3027l-15.21136,1.02545-.86088.05788L96.67207,31.074Zm-9.36654,5.32983,9.1459,5.61559-18.7566-3.02935ZM38.36765,10.61284l-.02351.21884L12.14893,3.21944,38.81166,6.46129Zm-26.00983-.04973L51.90474,39.90884l4.69231,12.88962ZM49.08519,101.3276,64.2224,81.05091,55.143,111.65811ZM87.08037,67.91623,69.1331,74.427,86.3488,50.91936l.63164-.02532,14.07649-.57241ZM126.10371,42.1406a.92463.92463,0,0,0-.34092-.06511.89027.89027,0,0,0-.24777.03437l-20.64383,5.735,4.053-7.6249,18.8841-1.27323,18.592,11.22032Z" style="fill: #2bc9a5; fill-opacity: 1;"></path></svg> <svg y="308" viewBox="4.300000190734863 13.600000381469727 388.6000061035156 33.86000061035156" x="186.4" height="33.86000061035156" width="388.6000061035156" style="overflow: visible;"><g fill="#FFF" fill-opacity="1" style=""><path d="M21.79 43.81L21.79 47.03L4.30 47.03L4.30 15.62L21.79 15.62L21.79 18.84L7.95 18.84L7.95 29.00L20.99 29.00L20.99 32.18L7.95 32.18L7.95 43.81L21.79 43.81ZM34.80 13.60L34.80 47.03L31.21 47.03L31.21 13.60L34.80 13.60ZM45.32 23.48L48.88 23.48L48.88 47.03L45.32 47.03L45.32 23.48ZM47.14 14.67L47.14 14.67Q48.02 14.67 48.66 15.24Q49.29 15.81 49.29 17.02L49.29 17.02Q49.29 18.20 48.66 18.78Q48.02 19.36 47.14 19.36L47.14 19.36Q46.22 19.36 45.61 18.78Q44.99 18.20 44.99 17.02L44.99 17.02Q44.99 15.81 45.61 15.24Q46.22 14.67 47.14 14.67ZM74.66 40.58L74.66 40.58Q74.66 42.84 73.53 44.38Q72.40 45.91 70.31 46.69Q68.21 47.46 65.31 47.46L65.31 47.46Q62.84 47.46 61.04 47.07Q59.23 46.69 57.88 45.98L57.88 45.98L57.88 42.69Q59.32 43.40 61.31 43.98Q63.31 44.56 65.40 44.56L65.40 44.56Q68.45 44.56 69.82 43.57Q71.20 42.58 71.20 40.88L71.20 40.88Q71.20 39.92 70.65 39.18Q70.10 38.44 68.81 37.74Q67.52 37.04 65.25 36.20L65.25 36.20Q62.99 35.34 61.35 34.49Q59.70 33.64 58.81 32.42Q57.92 31.20 57.92 29.24L57.92 29.24Q57.92 26.25 60.34 24.65Q62.75 23.05 66.69 23.05L66.69 23.05Q68.81 23.05 70.67 23.47Q72.53 23.89 74.14 24.60L74.14 24.60L72.94 27.46Q71.48 26.83 69.82 26.40Q68.17 25.97 66.45 25.97L66.45 25.97Q63.98 25.97 62.66 26.79Q61.34 27.61 61.34 29.03L61.34 29.03Q61.34 30.12 61.95 30.83Q62.56 31.54 63.91 32.16Q65.27 32.79 67.48 33.62L67.48 33.62Q69.69 34.44 71.30 35.31Q72.92 36.18 73.79 37.42Q74.66 38.65 74.66 40.58ZM92.20 23.10L92.20 23.10Q96.41 23.10 98.45 24.99Q100.49 26.88 100.49 31.02L100.49 31.02L100.49 47.03L97.89 47.03L97.21 43.55L97.04 43.55Q96.05 44.84 94.97 45.71Q93.90 46.58 92.49 47.02Q91.08 47.46 89.04 47.46L89.04 47.46Q86.89 47.46 85.23 46.71Q83.56 45.96 82.61 44.43Q81.65 42.90 81.65 40.56L81.65 40.56Q81.65 37.04 84.45 35.15Q87.24 33.26 92.95 33.09L92.95 33.09L97.01 32.91L97.01 31.47Q97.01 28.42 95.70 27.20Q94.39 25.97 92.01 25.97L92.01 25.97Q90.16 25.97 88.48 26.51Q86.81 27.05 85.30 27.78L85.30 27.78L84.21 25.07Q85.80 24.26 87.86 23.68Q89.92 23.10 92.20 23.10ZM96.97 37.60L96.97 35.43L93.38 35.58Q88.98 35.75 87.17 37.02Q85.37 38.29 85.37 40.61L85.37 40.61Q85.37 42.63 86.59 43.59Q87.82 44.56 89.84 44.56L89.84 44.56Q92.97 44.56 94.97 42.82Q96.97 41.08 96.97 37.60L96.97 37.60ZM110.84 13.60L114.41 13.60L114.41 21.96Q114.41 23.40 114.33 24.75Q114.26 26.10 114.21 26.86L114.21 26.86L114.41 26.86Q115.38 25.27 117.20 24.17Q119.03 23.07 121.86 23.07L121.86 23.07Q126.29 23.07 128.92 26.14Q131.55 29.20 131.55 35.23L131.55 35.23Q131.55 39.21 130.35 41.94Q129.15 44.67 126.96 46.06Q124.76 47.46 121.78 47.46L121.78 47.46Q118.98 47.46 117.19 46.42Q115.40 45.38 114.43 43.87L114.43 43.87L114.15 43.87L113.42 47.03L110.84 47.03L110.84 13.60ZM121.28 26.06L121.28 26.06Q118.73 26.06 117.22 27.06Q115.72 28.06 115.06 30.07Q114.41 32.08 114.41 35.15L114.41 35.15L114.41 35.34Q114.41 39.79 115.89 42.14Q117.37 44.49 121.28 44.49L121.28 44.49Q124.57 44.49 126.21 42.09Q127.86 39.68 127.86 35.21L127.86 35.21Q127.86 30.66 126.24 28.36Q124.61 26.06 121.28 26.06ZM149.83 23.05L149.83 23.05Q152.84 23.05 154.98 24.38Q157.13 25.72 158.27 28.11Q159.41 30.51 159.41 33.71L159.41 33.71L159.41 35.92L143.15 35.92Q143.21 40.07 145.21 42.24Q147.21 44.41 150.84 44.41L150.84 44.41Q153.07 44.41 154.79 44Q156.51 43.59 158.36 42.80L158.36 42.80L158.36 45.93Q156.57 46.73 154.82 47.09Q153.07 47.46 150.69 47.46L150.69 47.46Q147.29 47.46 144.77 46.07Q142.24 44.69 140.85 42.00Q139.45 39.32 139.45 35.43L139.45 35.43Q139.45 31.63 140.73 28.84Q142.01 26.06 144.34 24.56Q146.67 23.05 149.83 23.05ZM149.79 25.97L149.79 25.97Q146.93 25.97 145.23 27.84Q143.53 29.71 143.21 33.06L143.21 33.06L155.67 33.06Q155.65 30.96 155.02 29.36Q154.38 27.76 153.09 26.87Q151.80 25.97 149.79 25.97ZM176.07 44.54L176.07 44.54Q176.96 44.54 177.88 44.39Q178.80 44.24 179.38 44.02L179.38 44.02L179.38 46.79Q178.76 47.07 177.65 47.27Q176.55 47.46 175.49 47.46L175.49 47.46Q173.63 47.46 172.10 46.80Q170.57 46.15 169.66 44.58Q168.75 43.01 168.75 40.24L168.75 40.24L168.75 26.28L165.40 26.28L165.40 24.54L168.77 23.14L170.19 18.03L172.34 18.03L172.34 23.48L179.23 23.48L179.23 26.28L172.34 26.28L172.34 40.13Q172.34 42.35 173.36 43.44Q174.38 44.54 176.07 44.54ZM187.15 13.60L190.72 13.60L190.72 23.59Q190.72 24.45 190.68 25.32Q190.63 26.19 190.53 26.92L190.53 26.92L190.76 26.92Q191.49 25.67 192.62 24.83Q193.75 23.98 195.19 23.54Q196.63 23.10 198.24 23.10L198.24 23.10Q201.07 23.10 202.98 24.00Q204.88 24.90 205.83 26.79Q206.79 28.68 206.79 31.69L206.79 31.69L206.79 47.03L203.27 47.03L203.27 31.93Q203.27 28.98 201.92 27.52Q200.58 26.06 197.81 26.06L197.81 26.06Q195.19 26.06 193.63 27.06Q192.07 28.06 191.40 29.99Q190.72 31.93 190.72 34.72L190.72 34.72L190.72 47.03L187.15 47.03L187.15 13.60ZM234.47 47.03L231.49 47.03L220.94 19.23L220.77 19.23Q220.85 20.11 220.92 21.38Q220.98 22.64 221.03 24.14Q221.07 25.63 221.07 27.18L221.07 27.18L221.07 47.03L217.67 47.03L217.67 15.62L223.09 15.62L233.04 41.74L233.19 41.74L243.28 15.62L248.65 15.62L248.65 47.03L245.04 47.03L245.04 26.92Q245.04 25.52 245.09 24.12Q245.13 22.71 245.20 21.45Q245.26 20.20 245.32 19.27L245.32 19.27L245.15 19.27L234.47 47.03ZM268.78 23.05L268.78 23.05Q271.79 23.05 273.93 24.38Q276.08 25.72 277.22 28.11Q278.36 30.51 278.36 33.71L278.36 33.71L278.36 35.92L262.10 35.92Q262.16 40.07 264.16 42.24Q266.16 44.41 269.79 44.41L269.79 44.41Q272.02 44.41 273.74 44Q275.46 43.59 277.31 42.80L277.31 42.80L277.31 45.93Q275.52 46.73 273.77 47.09Q272.02 47.46 269.64 47.46L269.64 47.46Q266.24 47.46 263.72 46.07Q261.19 44.69 259.80 42.00Q258.40 39.32 258.40 35.43L258.40 35.43Q258.40 31.63 259.68 28.84Q260.96 26.06 263.29 24.56Q265.62 23.05 268.78 23.05ZM268.73 25.97L268.73 25.97Q265.88 25.97 264.18 27.84Q262.48 29.71 262.16 33.06L262.16 33.06L274.62 33.06Q274.60 30.96 273.97 29.36Q273.33 27.76 272.04 26.87Q270.75 25.97 268.73 25.97ZM295.80 47.46L295.80 47.46Q291.33 47.46 288.72 44.41Q286.11 41.36 286.11 35.34L286.11 35.34Q286.11 29.26 288.77 26.16Q291.44 23.05 295.86 23.05L295.86 23.05Q297.73 23.05 299.13 23.55Q300.52 24.04 301.53 24.87Q302.54 25.70 303.23 26.75L303.23 26.75L303.49 26.75Q303.40 26.08 303.32 24.92Q303.23 23.76 303.23 23.03L303.23 23.03L303.23 13.60L306.80 13.60L306.80 47.03L303.92 47.03L303.38 43.68L303.23 43.68Q302.56 44.73 301.54 45.59Q300.52 46.45 299.12 46.95Q297.71 47.46 295.80 47.46ZM296.36 44.49L296.36 44.49Q300.14 44.49 301.71 42.35Q303.27 40.20 303.27 35.96L303.27 35.96L303.27 35.32Q303.27 30.83 301.78 28.42Q300.29 26.02 296.36 26.02L296.36 26.02Q293.07 26.02 291.44 28.54Q289.80 31.07 289.80 35.43L289.80 35.43Q289.80 39.77 291.42 42.13Q293.05 44.49 296.36 44.49ZM320.93 13.60L320.93 47.03L317.34 47.03L317.34 13.60L320.93 13.60ZM331.45 23.48L335.01 23.48L335.01 47.03L331.45 47.03L331.45 23.48ZM333.27 14.67L333.27 14.67Q334.15 14.67 334.79 15.24Q335.42 15.81 335.42 17.02L335.42 17.02Q335.42 18.20 334.79 18.78Q334.15 19.36 333.27 19.36L333.27 19.36Q332.35 19.36 331.74 18.78Q331.12 18.20 331.12 17.02L331.12 17.02Q331.12 15.81 331.74 15.24Q332.35 14.67 333.27 14.67ZM354.62 23.05L354.62 23.05Q357.63 23.05 359.78 24.38Q361.92 25.72 363.06 28.11Q364.20 30.51 364.20 33.71L364.20 33.71L364.20 35.92L347.94 35.92Q348.00 40.07 350 42.24Q352.00 44.41 355.63 44.41L355.63 44.41Q357.86 44.41 359.58 44Q361.30 43.59 363.15 42.80L363.15 42.80L363.15 45.93Q361.37 46.73 359.61 47.09Q357.86 47.46 355.48 47.46L355.48 47.46Q352.08 47.46 349.56 46.07Q347.04 44.69 345.64 42.00Q344.24 39.32 344.24 35.43L344.24 35.43Q344.24 31.63 345.52 28.84Q346.80 26.06 349.13 24.56Q351.46 23.05 354.62 23.05ZM354.58 25.97L354.58 25.97Q351.72 25.97 350.02 27.84Q348.32 29.71 348.00 33.06L348.00 33.06L360.46 33.06Q360.44 30.96 359.81 29.36Q359.17 27.76 357.88 26.87Q356.60 25.97 354.58 25.97ZM384.41 23.05L384.41 23.05Q388.60 23.05 390.75 25.10Q392.90 27.16 392.90 31.69L392.90 31.69L392.90 47.03L389.37 47.03L389.37 31.93Q389.37 28.98 388.03 27.52Q386.69 26.06 383.92 26.06L383.92 26.06Q380.01 26.06 378.42 28.27Q376.83 30.49 376.83 34.70L376.83 34.70L376.83 47.03L373.26 47.03L373.26 23.48L376.14 23.48L376.68 26.88L376.87 26.88Q377.62 25.63 378.78 24.78Q379.94 23.93 381.38 23.49Q382.82 23.05 384.41 23.05Z" transform="translate(0, 0)"></path></g></svg></svg>